<svg xmlns="http://www.w3.org/2000/svg" viewBox="0 0 640 480" fill="white">
  <path d="M414 113.4c0-25-20.2-45.3-45.2-45.3-25 0-45.2 20.2-45.2 45.3s20.2 45.3 45.2 45.3c25 0 45.2-20.2 45.2-45.3zm-181.3 0c0-25-20.2-45.3-45.2-45.3s-45.2 20.2-45.2 45.3 20.2 45.3 45.2 45.3 45.2-20.2 45.2-45.3zm362.6 0c0-25-20.2-45.3-45.2-45.3s-45.2 20.2-45.2 45.3 20.2 45.3 45.2 45.3 45.2-20.2 45.2-45.3zM596.9 254H43.1c-12.5 0-22.6 10.2-22.6 22.8v134.4c0 12.6 10.1 22.8 22.6 22.8h553.8c12.5 0 22.6-10.2 22.6-22.8V276.8c0-12.6-10.1-22.8-22.6-22.8z"/>
</svg>
