<svg xmlns="http://www.w3.org/2000/svg" viewBox="0 0 109 113" fill="white">
  <path d="M63.7 110.3c-1.4.6-11.2 4.3-13.5-6.6-8.2-1.2-14.5-8.3-14.5-16.8 0-9.5 7.7-17.1 17.1-17.1 9.5 0 17.1 7.7 17.1 17.1 0 8.9-6.9 16.3-15.6 17.1.1.6.4 1.3.8 1.8l1.1 1.4c.6.7 1.3 1.3 2.1 1.8l2.3 1.5c1 .6 2.1 1.1 3.1 1.8zm-28.6-23.4c0 10.9 6.3 24 20.5 24 .5 0 1 0 1.5-.1-2.5-2.5-4.2-5.8-4.8-9.3-9.4-.9-16.7-8.9-16.7-18.6 0-10.3 8.4-18.7 18.7-18.7s18.7 8.4 18.7 18.7c0 3.9-1.2 7.5-3.3 10.5.9 0 1.7-.1 2.5-.3 1.5-3.1 2.3-6.5 2.3-10.2 0-12.8-10.4-23.2-23.2-23.2-12.8.1-23.4 10.5-23.4 23.2zm13.7-40C49.4 39 58 34 67.3 35.3c.1-1.1-.2-2.2-.8-3.1-1.3-1.9-4-2.5-6-1.2-8.3 5.1-15.9 11.3-22.5 18.4 2.9-1 6.1-1.6 9.8-2.5zM108.4 56c0-29.3-23.7-53-53-53-26.5 0-48.5 19.5-52.4 45 6.2-8.6 17.6-15.3 32.6-16.6-13.3 8.1-21.2 18.3-23.6 29.9-.2.9-.3 1.8-.4 2.8 0 .2 0 .4-.1.6-.8 8 1.5 15.9 7 23 .9 1.2 2 2.3 3.1 3.4 15.7 14.7 42.9 12.1 60.7-5.6.2-.2.4-.4.6-.6 1.9-1.9 3.6-3.9 5.2-6 .1-.1.2-.2.2-.3 12.3-16.9 11.7-36.9 20.1-22.6z"/>
</svg>
